#!OML:ASF I:\Actors\actors\Patient Classification 1\Patient 1\Session 1\Subject1.ASF
:FULLY-SPECIFIED
:DEGREES
593
root -2.1091 17.5851 8.52135 5.06017 29.8014 -5.28218
lowerback 5.03371 4.95075 4.88534
upperback -9.00446 7.4538 0.780101
thorax -12.0502 3.2241 -2.97857
lowerneck -6.29582 -9.57228 -5.98331
upperneck 17.8352 -14.256 10.4733
head 7.715 -6.3416 3.07728
rclavicle 1.51325e-014 -7.95139e-015
rhumerus -8.26787 11.1169 -79.0524
rradius 68.6256
rwrist -11.0342
rhand -7.51449 -45.8259
rfingers 7.12502
rthumb 18.3759 -74.9779
lclavicle 1.51325e-014 -7.95139e-015
lhumerus -48.8651 31.0681 45.7761
lradius 44.1917
lwrist 5.50558
lhand -36.4395 -12.592
lfingers 7.12502
lthumb -9.5339 17.1723
rfemur 5.72514 15.4305 33.3866
rtibia -1.94483
rfoot -21.5723 -37.0884
rtoes 25.1273
lfemur -10.5677 -31.7352 -2.0549
ltibia 6.09709
lfoot -4.58604 9.01184
ltoes -25.2096
594
root -2.08105 17.5866 8.52239 5.04418 29.6695 -5.35609
lowerback 5.03565 4.74021 4.77205
upperback -8.99805 7.16232 0.850667
thorax -12.0882 3.09616 -2.80283
lowerneck -5.79208 -9.34765 -5.56614
upperneck 16.6161 -13.7009 9.47124
head 7.07351 -6.20117 2.7885
rclavicle 4.49502e-014 1.81888e-014
rhumerus -9.65676 13.1002 -79.2308
rradius 72.3546
rwrist -11.5419
rhand -7.46284 -46.1087
rfingers 7.12502
rthumb 18.4256 -75.256
lclavicle 4.49502e-014 1.81888e-014
lhumerus -47.2747 30.7995 48.954
lradius 47.4968
lwrist 7.41319
lhand -36.1952 -9.90549
lfingers 7.12502
lthumb -9.29814 19.8695
rfemur 5.78521 15.3722 33.3304
rtibia -1.97096
rfoot -21.2664 -36.9565
rtoes 24.1251
lfemur -10.4026 -31.7413 -2.13097
ltibia 6.02127
lfoot -4.75428 9.08484
ltoes -25.4531
595
root -2.04881 17.5912 8.52146 5.00591 29.3503 -5.47587
lowerback 5.05133 4.57172 4.68525
upperback -9.0027 6.93106 0.911577
thorax -12.1375 2.99365 -2.66114
lowerneck -3.95021 -8.98333 -6.4294
upperneck 13.7215 -13.1121 10.8154
head 5.93428 -6.0333 3.51939
rclavicle 8.48314e-014 2.1916e-014
rhumerus -11.0123 15.103 -79.4766
rradius 75.8094
rwrist -11.7705
rhand -7.21812 -46.2807
rfingers 7.12502
rthumb 18.661 -75.4056
lclavicle 8.48314e-014 2.1916e-014
lhumerus -45.4701 29.6404 52.2125
lradius 50.5804
lwrist 10.4271
lhand -35.6999 -10.829
lfingers 7.12502
lthumb -8.82026 18.9667
rfemur 5.84875 15.493 33.3038
rtibia -1.9487
rfoot -21.1281 -36.742
rtoes 23.598
lfemur -10.1846 -31.5716 -2.19113
ltibia 5.95564
lfoot -4.9444 9.14333
ltoes -25.516
596
root -2.00594 17.5927 8.51632 5.1843 28.8294 -5.52514
lowerback 4.89355 4.42143 4.59469
upperback -9.09016 6.7154 0.940893
thorax -12.1702 2.89891 -2.54068
lowerneck -3.53671 -8.61887 -6.30108
upperneck 12.8585 -12.4854 10.314
head 5.49627 -5.79883 3.42758
rclavicle -5.11187e-014 -1.45113e-014
rhumerus -12.3552 17.2135 -79.8778
rradius 78.8322
rwrist -11.7798
rhand -7.29622 -46.282
rfingers 7.12502
rthumb 18.5859 -75.4141
lclavicle -5.11187e-014 -1.45113e-014
lhumerus -43.767 27.7634 55.7073
lradius 53.604
lwrist 11.5983
lhand -36.0723 -10.3623
lfingers 7.12502
lthumb -9.17952 19.4179
rfemur 5.61112 15.534 33.0379
rtibia -1.7587
rfoot -20.861 -36.1725
rtoes 22.9319
lfemur -10.145 -31.4332 -2.26403
ltibia 5.96483
lfoot -5.17205 9.48361
ltoes -25.3426
597
root -1.95317 17.5933 8.51513 5.37821 28.1094 -5.5626
lowerback 4.6292 4.24626 4.4562
upperback -9.17977 6.45881 1.01708
thorax -12.1521 2.79425 -2.32872
lowerneck -3.22658 -8.1076 -6.49558
upperneck 12.2097 -11.7186 10.2516
head 5.18245 -5.46962 3.52303
rclavicle 3.2582e-014 4.47266e-015
rhumerus -13.6112 19.4992 -80.4056
rradius 81.3353
rwrist -11.556
rhand -7.35557 -45.9464
rfingers 7.12502
rthumb 18.5288 -75.084
lclavicle 3.2582e-014 4.47266e-015
lhumerus -42.3333 25.9034 58.7517
lradius 56.2601
lwrist 12.0794
lhand -36.0591 -10.9036
lfingers 7.12502
lthumb -9.16686 18.8771
rfemur 5.33288 15.3426 32.6634
rtibia -1.47847
rfoot -20.2831 -35.2537
rtoes 21.5401
lfemur -9.89139 -31.4496 -2.46657
ltibia 5.88893
lfoot -5.34395 10.1437
ltoes -25.0156
598
root -1.89865 17.6043 8.52207 5.17945 27.2329 -5.67836
lowerback 4.64102 4.05324 4.32309
upperback -9.16706 6.19138 1.12901
thorax -12.1877 2.68183 -2.0999
lowerneck -2.87861 -7.51753 -6.49629
upperneck 11.5548 -10.8568 10.1357
head 4.83933 -5.08562 3.57533
rclavicle 5.21189e-015 -5.76476e-015
rhumerus -14.8257 21.6831 -81.2014
rradius 83.358
rwrist -11.0234
rhand -7.33624 -45.4628
rfingers 7.12502
rthumb 18.5474 -74.5986
lclavicle 5.21189e-015 -5.76476e-015
lhumerus -40.9519 23.744 61.524
lradius 58.4947
lwrist 12.3674
lhand -35.8681 -12.4771
lfingers 7.12502
lthumb -8.98254 17.3117
rfemur 5.54708 15.2985 32.5304
rtibia -1.25891
rfoot -19.4822 -34.5174
rtoes 19.4852
lfemur -8.94698 -31.3281 -2.90765
ltibia 5.61331
lfoot -5.45081 10.7092
ltoes -24.6999
599
root -1.83897 17.6182 8.52595 5.00295 26.2545 -5.75068
lowerback 4.68483 3.91744 4.22351
upperback -9.18844 5.99997 1.15607
thorax -12.263 2.59615 -1.99462
lowerneck -2.5977 -6.9464 -6.06088
upperneck 11.078 -10.0333 9.7604
head 4.53345 -4.70521 3.46501
rclavicle -4.36379e-014 -2.02885e-014
rhumerus -16.1179 23.7129 -82.1762
rradius 85.0618
rwrist -10.5827
rhand -7.49807 -45.1795
rfingers 7.12502
rthumb 18.3917 -74.33
lclavicle -4.36379e-014 -2.02885e-014
lhumerus -39.6306 20.8907 64.2128
lradius 60.6251
lwrist 12.9621
lhand -35.6152 -13.3684
lfingers 7.12502
lthumb -8.73848 16.4307
rfemur 5.76302 15.4633 32.3646
rtibia -1.05607
rfoot -18.7183 -33.9635
rtoes 17.6632
lfemur -7.97433 -31.0291 -3.42663
ltibia 5.34981
lfoot -5.55428 11.2277
ltoes -24.8514
600
root -1.7735 17.6276 8.52252 5.12846 25.2567 -5.76722
lowerback 4.46693 3.78041 4.10179
upperback -9.29387 5.793 1.16596
thorax -12.2747 2.50805 -1.87538
lowerneck -1.86612 -6.1789 -5.77218
upperneck 10.1318 -8.96087 9.8139
head 4.02358 -4.20872 3.53777
rclavicle -4.19777e-015 -4.89507e-015
rhumerus -17.3428 26.4033 -82.8335
rradius 86.638
rwrist -10.8962
rhand -7.92905 -45.2621
rfingers 7.12502
rthumb 17.9771 -74.4512
lclavicle -4.19777e-015 -4.89507e-015
lhumerus -38.4812 18.1345 66.5413
lradius 62.569
lwrist 12.5849
lhand -34.7727 -12.9184
lfingers 7.12502
lthumb -7.92543 16.913
rfemur 5.58092 15.6323 32.0134
rtibia -0.779822
rfoot -18.1795 -33.3658
rtoes 16.5918
lfemur -7.41124 -30.6632 -3.82586
ltibia 5.13696
lfoot -5.61391 11.7921
ltoes -25.2382
601
root -1.70379 17.6402 8.51832 5.19921 24.1773 -5.80473
lowerback 4.24352 3.61152 3.95391
upperback -9.37001 5.54424 1.23657
thorax -12.2589 2.40681 -1.66961
lowerneck -2.4425 -5.6547 -4.81491
upperneck 10.7741 -8.21292 8.67909
head 4.1695 -3.82746 3.0567
rclavicle 1.32161e-014 -1.18774e-014
rhumerus -18.5445 29.5059 -83.3649
rradius 88.0979
rwrist -11.5165
rhand -8.29748 -45.5945
rfingers 7.12502
rthumb 17.6226 -74.8159
lclavicle 1.32161e-014 -1.18774e-014
lhumerus -37.5465 15.0494 68.922
lradius 64.4966
lwrist 14.0292
lhand -34.5481 -12.7091
lfingers 7.12502
lthumb -7.7086 17.1304
rfemur 5.3843 15.703 31.6713
rtibia -0.436098
rfoot -17.6025 -32.7273
rtoes 15.5271
lfemur -6.71642 -30.3668 -4.26542
ltibia 4.7992
lfoot -5.6041 12.4492
ltoes -25.0175
